<?xml version="1.0" encoding="UTF-8" standalone="no"?>
<svg
   id="_图层_1"
   data-name="图层_1"
   viewBox="0 0 154.52999 154.53"
   version="1.1"
   sodipodi:docname="logo.svg"
   width="154.53"
   height="154.53"
   inkscape:version="1.4 (86a8ad7, 2024-10-11)"
   xmlns:inkscape="http://www.inkscape.org/namespaces/inkscape"
   xmlns:sodipodi="http://sodipodi.sourceforge.net/DTD/sodipodi-0.dtd"
   xmlns="http://www.w3.org/2000/svg"
   xmlns:svg="http://www.w3.org/2000/svg">
  <sodipodi:namedview
     id="namedview35"
     pagecolor="#ffffff"
     bordercolor="#000000"
     borderopacity="0.25"
     inkscape:showpageshadow="2"
     inkscape:pageopacity="0.0"
     inkscape:pagecheckerboard="0"
     inkscape:deskcolor="#d1d1d1"
     inkscape:zoom="4.0763753"
     inkscape:cx="88.681727"
     inkscape:cy="66.603289"
     inkscape:window-width="1920"
     inkscape:window-height="1009"
     inkscape:window-x="-8"
     inkscape:window-y="-8"
     inkscape:window-maximized="1"
     inkscape:current-layer="_图层_1" />
  <defs
     id="defs1">
    <style
       id="style1">
      .cls-1 {
        fill: #040000;
      }

      .cls-2 {
        fill: #fff;
      }

      .cls-3, .cls-4 {
        fill: none;
      }

      .cls-5 {
        fill: #231815;
        font-family: FZLTCHJW--GB1-0, FZLanTingHeiS-B-GB;
        font-size: 47.41px;
        letter-spacing: .1em;
      }

      .cls-4 {
        stroke: #e7251f;
        stroke-miterlimit: 10;
        stroke-width: .5px;
      }

      .cls-6 {
        fill: #e60012;
        font-family: AdobeSongStd-Light-GBpc-EUC-H, 'Adobe Song Std';
        font-size: 26.65px;
        font-weight: 300;
      }

      .cls-7 {
        fill: #cc1329;
      }
    </style>
  </defs>
  <g
     id="g35"
     transform="translate(-301.54,-189.82175)">
    <g
       id="g34">
      <g
         id="g33">
        <polygon
           class="cls-1"
           points="311.87,286.22 311.87,283.15 313.41,283.15 313.41,290.82 311.87,290.82 311.87,287.45 308.44,287.45 308.44,290.82 306.9,290.82 306.9,283.15 308.44,283.15 308.44,286.22 "
           id="polygon9" />
        <path
           class="cls-1"
           d="m 315.54,290.38 c -0.32,-0.36 -0.48,-0.9 -0.48,-1.6 v -3.68 h 1.5 v 3.58 c 0,0.37 0.07,0.64 0.21,0.81 0.14,0.17 0.35,0.26 0.62,0.26 0.25,0 0.49,-0.06 0.72,-0.19 0.23,-0.13 0.44,-0.3 0.65,-0.51 v -3.94 h 1.51 v 4.29 c 0,0.49 0.02,0.96 0.05,1.44 h -1.43 c -0.02,-0.11 -0.04,-0.26 -0.07,-0.43 -0.02,-0.18 -0.04,-0.33 -0.04,-0.44 -0.17,0.19 -0.34,0.35 -0.51,0.49 -0.17,0.14 -0.37,0.25 -0.6,0.35 -0.23,0.1 -0.5,0.14 -0.8,0.14 -0.58,0 -1.02,-0.18 -1.34,-0.54"
           id="path9" />
        <path
           class="cls-1"
           d="m 325.21,290.82 c -0.05,-0.23 -0.08,-0.47 -0.09,-0.73 -0.2,0.23 -0.45,0.43 -0.76,0.59 -0.31,0.16 -0.66,0.24 -1.06,0.24 -0.33,0 -0.63,-0.07 -0.91,-0.2 -0.28,-0.13 -0.49,-0.33 -0.66,-0.59 -0.16,-0.27 -0.25,-0.59 -0.25,-0.97 0,-1.21 0.87,-1.82 2.62,-1.82 0.34,0 0.67,0.02 1,0.07 v -0.1 c 0,-0.45 -0.1,-0.77 -0.31,-0.95 -0.2,-0.19 -0.5,-0.28 -0.88,-0.28 -0.28,0 -0.58,0.04 -0.9,0.12 -0.32,0.08 -0.61,0.18 -0.85,0.29 l -0.22,-1.09 c 0.24,-0.11 0.56,-0.21 0.96,-0.29 0.39,-0.09 0.81,-0.13 1.24,-0.13 0.79,0 1.4,0.19 1.83,0.56 0.43,0.37 0.65,1.01 0.65,1.91 v 2.29 c 0,0.24 0.01,0.6 0.04,1.07 h -1.44 z m -0.72,-1.18 c 0.24,-0.11 0.44,-0.26 0.61,-0.43 v -0.95 c -0.33,-0.04 -0.59,-0.05 -0.8,-0.05 -0.48,0 -0.81,0.08 -1,0.23 -0.18,0.16 -0.28,0.37 -0.28,0.63 0,0.26 0.07,0.44 0.2,0.56 0.13,0.12 0.32,0.18 0.55,0.18 0.23,0 0.47,-0.06 0.71,-0.17"
           id="path10" />
        <path
           class="cls-1"
           d="m 327.37,285.09 h 1.58 l 0.88,3.26 c 0.12,0.42 0.2,0.78 0.24,1.06 0.03,-0.24 0.12,-0.6 0.26,-1.05 l 0.98,-3.27 h 1.49 l 0.93,3.27 c 0.12,0.44 0.2,0.79 0.24,1.05 0.03,-0.24 0.11,-0.59 0.24,-1.07 l 0.95,-3.25 h 1.47 l -1.92,5.73 h -1.61 l -0.91,-3.11 c -0.1,-0.34 -0.17,-0.68 -0.23,-1.02 -0.04,0.29 -0.12,0.63 -0.23,1 l -0.93,3.13 h -1.61 l -1.83,-5.73 z"
           id="path11" />
        <path
           class="cls-1"
           d="m 342.19,288.21 h -3.69 c 0.05,0.55 0.21,0.95 0.48,1.2 0.27,0.25 0.65,0.37 1.12,0.37 0.27,0 0.54,-0.03 0.83,-0.1 0.28,-0.06 0.56,-0.15 0.82,-0.26 l 0.33,1.03 c -0.67,0.32 -1.42,0.48 -2.24,0.48 -0.95,0 -1.67,-0.25 -2.16,-0.75 -0.49,-0.5 -0.73,-1.21 -0.73,-2.13 0,-0.64 0.11,-1.18 0.35,-1.64 0.23,-0.46 0.55,-0.81 0.96,-1.05 0.41,-0.24 0.88,-0.36 1.42,-0.36 0.54,0 1.03,0.13 1.41,0.39 0.38,0.26 0.65,0.61 0.84,1.05 0.18,0.44 0.27,0.92 0.27,1.46 v 0.34 z m -1.47,-0.93 c -0.02,-0.41 -0.12,-0.72 -0.31,-0.92 -0.18,-0.21 -0.43,-0.31 -0.74,-0.31 -0.31,0 -0.55,0.1 -0.75,0.31 -0.2,0.2 -0.33,0.51 -0.39,0.93 h 2.2 z"
           id="path12" />
        <path
           class="cls-1"
           d="m 343.74,284.25 c -0.13,-0.07 -0.23,-0.17 -0.3,-0.3 -0.07,-0.13 -0.11,-0.27 -0.11,-0.43 0,-0.25 0.08,-0.45 0.24,-0.61 0.16,-0.16 0.37,-0.24 0.62,-0.24 0.16,0 0.31,0.04 0.44,0.11 0.13,0.07 0.24,0.17 0.31,0.3 0.08,0.13 0.11,0.27 0.11,0.43 0,0.16 -0.04,0.3 -0.11,0.43 -0.08,0.13 -0.18,0.23 -0.31,0.3 -0.13,0.07 -0.28,0.11 -0.44,0.11 -0.16,0 -0.31,-0.04 -0.44,-0.11 m -0.33,0.85 h 1.52 v 5.73 h -1.52 z"
           id="path13" />
        <path
           class="cls-1"
           d="m 350.73,290.78 c -0.43,-0.1 -0.81,-0.23 -1.13,-0.38 l 0.46,-1.19 c 0.29,0.14 0.62,0.26 0.98,0.36 0.37,0.09 0.69,0.14 0.98,0.14 0.38,0 0.68,-0.08 0.88,-0.25 0.2,-0.17 0.3,-0.39 0.3,-0.67 0,-0.22 -0.07,-0.4 -0.2,-0.56 -0.13,-0.16 -0.31,-0.29 -0.52,-0.41 -0.21,-0.11 -0.51,-0.26 -0.9,-0.43 -0.4,-0.17 -0.74,-0.36 -1,-0.55 -0.26,-0.19 -0.47,-0.41 -0.62,-0.68 -0.15,-0.26 -0.22,-0.58 -0.22,-0.94 0,-0.45 0.11,-0.85 0.33,-1.18 0.22,-0.33 0.53,-0.58 0.93,-0.75 0.39,-0.17 0.85,-0.26 1.36,-0.26 0.38,0 0.76,0.04 1.16,0.13 0.4,0.09 0.71,0.19 0.95,0.33 l -0.29,1.23 c -0.64,-0.31 -1.24,-0.46 -1.81,-0.46 -0.33,0 -0.6,0.06 -0.8,0.18 -0.2,0.12 -0.3,0.32 -0.3,0.58 0,0.17 0.05,0.32 0.16,0.45 0.11,0.13 0.26,0.25 0.48,0.36 0.21,0.12 0.55,0.28 1,0.48 0.42,0.19 0.76,0.38 1.02,0.58 0.26,0.2 0.46,0.43 0.6,0.7 0.14,0.27 0.2,0.58 0.2,0.95 0,0.51 -0.11,0.94 -0.33,1.29 -0.22,0.35 -0.54,0.62 -0.94,0.8 -0.41,0.18 -0.89,0.27 -1.44,0.27 -0.42,0 -0.85,-0.05 -1.28,-0.14"
           id="path14" />
        <path
           class="cls-1"
           d="m 356.67,290.45 c -0.32,-0.32 -0.48,-0.85 -0.48,-1.59 v -2.66 h -0.83 l 0.17,-0.98 0.69,-0.12 0.08,-1.42 1.4,-0.14 v 1.56 h 1.71 l -0.17,1.1 h -1.54 v 2.5 c 0,0.27 0.03,0.49 0.09,0.65 0.06,0.16 0.15,0.27 0.27,0.34 0.12,0.07 0.28,0.1 0.47,0.1 0.25,0 0.53,-0.05 0.83,-0.16 l 0.19,1 c -0.19,0.09 -0.42,0.16 -0.69,0.22 -0.26,0.06 -0.54,0.09 -0.83,0.09 -0.6,0 -1.05,-0.16 -1.37,-0.47"
           id="path15" />
        <path
           class="cls-1"
           d="m 360.83,290.38 c -0.32,-0.36 -0.48,-0.9 -0.48,-1.6 v -3.68 h 1.5 v 3.58 c 0,0.37 0.07,0.64 0.21,0.81 0.14,0.17 0.35,0.26 0.62,0.26 0.25,0 0.49,-0.06 0.72,-0.19 0.23,-0.13 0.44,-0.3 0.65,-0.51 v -3.94 h 1.51 v 4.29 c 0,0.49 0.02,0.96 0.05,1.44 h -1.43 c -0.02,-0.11 -0.04,-0.26 -0.06,-0.43 -0.02,-0.18 -0.04,-0.33 -0.05,-0.44 -0.17,0.19 -0.34,0.35 -0.51,0.49 -0.17,0.14 -0.37,0.25 -0.6,0.35 -0.23,0.1 -0.5,0.14 -0.8,0.14 -0.58,0 -1.02,-0.18 -1.34,-0.54"
           id="path16" />
        <path
           class="cls-1"
           d="m 370.76,290.82 c -0.05,-0.21 -0.08,-0.46 -0.11,-0.72 -0.23,0.27 -0.48,0.47 -0.75,0.61 -0.27,0.14 -0.59,0.22 -0.96,0.22 -0.4,0 -0.77,-0.09 -1.09,-0.28 -0.32,-0.19 -0.58,-0.49 -0.78,-0.9 -0.19,-0.41 -0.29,-0.94 -0.29,-1.57 0,-0.63 0.11,-1.22 0.33,-1.7 0.22,-0.48 0.54,-0.84 0.96,-1.1 0.43,-0.26 0.93,-0.39 1.54,-0.39 0.33,0 0.67,0.05 1.03,0.16 v -2.44 l 1.51,-0.11 v 6.81 c 0,0.47 0.02,0.94 0.05,1.42 h -1.44 z m -0.65,-1.27 c 0.23,-0.13 0.41,-0.27 0.54,-0.44 v -2.87 c -0.31,-0.12 -0.62,-0.18 -0.93,-0.18 -0.43,0 -0.76,0.18 -1.01,0.53 -0.25,0.35 -0.37,0.87 -0.37,1.55 0,0.55 0.1,0.96 0.29,1.21 0.19,0.26 0.44,0.38 0.75,0.38 0.26,0 0.5,-0.06 0.73,-0.19"
           id="path17" />
        <path
           class="cls-1"
           d="m 378.63,288.21 h -3.69 c 0.05,0.55 0.21,0.95 0.48,1.2 0.27,0.25 0.65,0.37 1.12,0.37 0.27,0 0.54,-0.03 0.83,-0.1 0.28,-0.06 0.56,-0.15 0.82,-0.26 l 0.33,1.03 c -0.67,0.32 -1.42,0.48 -2.24,0.48 -0.95,0 -1.67,-0.25 -2.16,-0.75 -0.49,-0.5 -0.73,-1.21 -0.73,-2.13 0,-0.64 0.11,-1.18 0.35,-1.64 0.23,-0.46 0.55,-0.81 0.96,-1.05 0.41,-0.24 0.89,-0.36 1.42,-0.36 0.53,0 1.03,0.13 1.41,0.39 0.38,0.26 0.65,0.61 0.84,1.05 0.18,0.44 0.27,0.92 0.27,1.46 v 0.34 z m -1.47,-0.93 c -0.02,-0.41 -0.12,-0.72 -0.31,-0.92 -0.18,-0.21 -0.43,-0.31 -0.74,-0.31 -0.31,0 -0.55,0.1 -0.75,0.31 -0.2,0.2 -0.33,0.51 -0.39,0.93 h 2.2 z"
           id="path18" />
        <path
           class="cls-1"
           d="m 379.84,286.54 c 0,-0.53 -0.01,-1.02 -0.04,-1.45 h 1.44 c 0.02,0.12 0.04,0.26 0.06,0.44 0.02,0.18 0.03,0.33 0.04,0.45 0.18,-0.2 0.35,-0.37 0.52,-0.51 0.16,-0.14 0.36,-0.26 0.6,-0.35 0.23,-0.09 0.5,-0.14 0.81,-0.14 0.37,0 0.69,0.08 0.96,0.25 0.27,0.16 0.47,0.41 0.62,0.73 0.14,0.32 0.22,0.72 0.22,1.19 v 3.67 h -1.51 v -3.56 c 0,-0.37 -0.07,-0.64 -0.21,-0.81 -0.14,-0.18 -0.35,-0.27 -0.62,-0.27 -0.26,0 -0.49,0.07 -0.71,0.19 -0.22,0.13 -0.43,0.3 -0.64,0.52 v 3.93 h -1.52 v -4.28 z"
           id="path19" />
        <path
           class="cls-1"
           d="m 387.25,290.45 c -0.32,-0.32 -0.48,-0.85 -0.48,-1.59 v -2.66 h -0.83 l 0.17,-0.98 0.69,-0.12 0.08,-1.42 1.4,-0.14 v 1.56 h 1.71 l -0.17,1.1 h -1.54 v 2.5 c 0,0.27 0.03,0.49 0.09,0.65 0.06,0.16 0.15,0.27 0.27,0.34 0.12,0.07 0.28,0.1 0.47,0.1 0.25,0 0.53,-0.05 0.83,-0.16 l 0.19,1 c -0.19,0.09 -0.42,0.16 -0.69,0.22 -0.26,0.06 -0.54,0.09 -0.83,0.09 -0.6,0 -1.05,-0.16 -1.37,-0.47"
           id="path20" />
        <path
           class="cls-1"
           d="m 394.56,283.15 h 2.65 c 0.83,0 1.53,0.14 2.12,0.41 0.59,0.27 1.04,0.67 1.35,1.21 0.31,0.53 0.47,1.19 0.47,1.96 0,0.77 -0.16,1.49 -0.49,2.11 -0.33,0.62 -0.8,1.11 -1.41,1.46 -0.61,0.35 -1.34,0.53 -2.16,0.53 h -2.52 v -7.66 z m 2.44,6.48 c 0.55,0 1.02,-0.12 1.41,-0.37 0.38,-0.24 0.67,-0.58 0.86,-1.01 0.19,-0.43 0.29,-0.92 0.29,-1.47 0,-0.8 -0.21,-1.41 -0.62,-1.82 -0.41,-0.41 -1.02,-0.61 -1.83,-0.61 h -1.01 v 5.28 z"
           id="path21" />
        <path
           class="cls-1"
           d="m 407.27,288.21 h -3.69 c 0.05,0.55 0.21,0.95 0.48,1.2 0.27,0.25 0.65,0.37 1.12,0.37 0.27,0 0.54,-0.03 0.83,-0.1 0.28,-0.06 0.56,-0.15 0.82,-0.26 l 0.33,1.03 c -0.67,0.32 -1.42,0.48 -2.24,0.48 -0.95,0 -1.67,-0.25 -2.16,-0.75 -0.49,-0.5 -0.73,-1.21 -0.73,-2.13 0,-0.64 0.11,-1.18 0.35,-1.64 0.23,-0.46 0.55,-0.81 0.96,-1.05 0.41,-0.24 0.89,-0.36 1.42,-0.36 0.53,0 1.03,0.13 1.41,0.39 0.38,0.26 0.65,0.61 0.84,1.05 0.18,0.44 0.27,0.92 0.27,1.46 v 0.34 z m -1.47,-0.93 c -0.02,-0.41 -0.12,-0.72 -0.31,-0.92 -0.18,-0.21 -0.43,-0.31 -0.74,-0.31 -0.31,0 -0.55,0.1 -0.75,0.31 -0.2,0.2 -0.33,0.51 -0.39,0.93 h 2.2 z"
           id="path22" />
        <path
           class="cls-1"
           d="m 407.71,285.09 h 1.61 l 1.05,3.3 c 0.1,0.31 0.19,0.65 0.26,1.01 0.06,-0.27 0.15,-0.61 0.29,-1.02 l 1.04,-3.29 h 1.5 l -2.05,5.73 h -1.66 l -2.03,-5.73 z"
           id="path23" />
        <path
           class="cls-1"
           d="m 418.99,288.21 h -3.69 c 0.05,0.55 0.21,0.95 0.48,1.2 0.27,0.25 0.65,0.37 1.12,0.37 0.27,0 0.54,-0.03 0.83,-0.1 0.28,-0.06 0.56,-0.15 0.82,-0.26 l 0.33,1.03 c -0.67,0.32 -1.42,0.48 -2.24,0.48 -0.95,0 -1.67,-0.25 -2.16,-0.75 -0.49,-0.5 -0.73,-1.21 -0.73,-2.13 0,-0.64 0.11,-1.18 0.35,-1.64 0.23,-0.46 0.55,-0.81 0.96,-1.05 0.41,-0.24 0.89,-0.36 1.42,-0.36 0.53,0 1.03,0.13 1.41,0.39 0.38,0.26 0.65,0.61 0.84,1.05 0.18,0.44 0.27,0.92 0.27,1.46 v 0.34 z m -1.47,-0.93 c -0.02,-0.41 -0.12,-0.72 -0.31,-0.92 -0.18,-0.21 -0.43,-0.31 -0.74,-0.31 -0.31,0 -0.55,0.1 -0.75,0.31 -0.2,0.2 -0.33,0.51 -0.39,0.93 h 2.2 z"
           id="path24" />
        <path
           class="cls-1"
           d="m 420.53,290.55 c -0.24,-0.25 -0.37,-0.64 -0.37,-1.17 v -6.68 l 1.52,-0.1 v 6.51 c 0,0.23 0.04,0.39 0.13,0.48 0.09,0.09 0.21,0.14 0.38,0.14 0.11,0 0.23,-0.02 0.38,-0.07 l 0.18,1.07 c -0.14,0.06 -0.32,0.11 -0.53,0.14 -0.21,0.04 -0.41,0.05 -0.6,0.05 -0.48,0 -0.84,-0.12 -1.08,-0.37"
           id="path25" />
        <path
           class="cls-1"
           d="m 424.62,290.59 c -0.42,-0.22 -0.75,-0.54 -0.99,-0.98 -0.24,-0.44 -0.36,-0.96 -0.36,-1.59 0,-0.63 0.12,-1.18 0.36,-1.64 0.24,-0.46 0.57,-0.81 1,-1.05 0.43,-0.24 0.92,-0.36 1.48,-0.36 0.56,0 1.03,0.12 1.45,0.36 0.42,0.24 0.74,0.58 0.98,1.03 0.23,0.45 0.35,0.98 0.35,1.6 0,0.62 -0.12,1.16 -0.36,1.61 -0.24,0.44 -0.58,0.78 -1.01,1.01 -0.43,0.23 -0.92,0.34 -1.47,0.34 -0.55,0 -1.01,-0.11 -1.43,-0.33 m 2.7,-2.56 c 0,-0.61 -0.1,-1.08 -0.31,-1.41 -0.21,-0.33 -0.52,-0.5 -0.94,-0.5 -0.42,0 -0.74,0.17 -0.94,0.5 -0.21,0.33 -0.31,0.8 -0.31,1.39 0,0.59 0.11,1.01 0.33,1.32 0.22,0.31 0.54,0.46 0.97,0.46 0.8,0 1.2,-0.58 1.2,-1.76"
           id="path26" />
        <path
           class="cls-1"
           d="m 430.1,286.5 c 0,-0.44 -0.01,-0.91 -0.04,-1.41 h 1.45 c 0.05,0.21 0.08,0.45 0.1,0.74 0.22,-0.26 0.48,-0.47 0.77,-0.62 0.29,-0.15 0.6,-0.23 0.95,-0.23 0.39,0 0.74,0.1 1.06,0.29 0.32,0.19 0.58,0.5 0.78,0.91 0.2,0.41 0.3,0.93 0.3,1.57 0,0.68 -0.12,1.26 -0.36,1.74 -0.24,0.48 -0.57,0.84 -0.99,1.08 -0.42,0.24 -0.9,0.37 -1.44,0.37 -0.33,0 -0.68,-0.06 -1.06,-0.18 v 2.33 l -1.53,0.11 v -6.7 z m 3.45,2.81 c 0.25,-0.34 0.37,-0.83 0.37,-1.48 0,-0.59 -0.1,-1.01 -0.3,-1.27 -0.2,-0.26 -0.47,-0.39 -0.8,-0.39 -0.23,0 -0.43,0.05 -0.63,0.16 -0.19,0.11 -0.38,0.26 -0.57,0.45 v 2.85 c 0.11,0.05 0.24,0.1 0.4,0.13 0.16,0.03 0.31,0.05 0.47,0.05 0.46,0 0.81,-0.17 1.06,-0.5"
           id="path27" />
        <path
           class="cls-1"
           d="m 441.54,288.21 h -3.69 c 0.05,0.55 0.21,0.95 0.48,1.2 0.27,0.25 0.65,0.37 1.12,0.37 0.27,0 0.54,-0.03 0.83,-0.1 0.28,-0.06 0.56,-0.15 0.82,-0.26 l 0.33,1.03 c -0.67,0.32 -1.42,0.48 -2.24,0.48 -0.95,0 -1.67,-0.25 -2.16,-0.75 -0.49,-0.5 -0.73,-1.21 -0.73,-2.13 0,-0.64 0.11,-1.18 0.35,-1.64 0.23,-0.46 0.55,-0.81 0.96,-1.05 0.41,-0.24 0.89,-0.36 1.42,-0.36 0.53,0 1.03,0.13 1.41,0.39 0.38,0.26 0.65,0.61 0.84,1.05 0.18,0.44 0.27,0.92 0.27,1.46 v 0.34 z m -1.47,-0.93 c -0.02,-0.41 -0.12,-0.72 -0.31,-0.92 -0.18,-0.21 -0.43,-0.31 -0.74,-0.31 -0.31,0 -0.56,0.1 -0.75,0.31 -0.2,0.2 -0.33,0.51 -0.39,0.93 h 2.2 z"
           id="path28" />
        <path
           class="cls-1"
           d="m 442.76,286.52 c 0,-0.32 -0.01,-0.79 -0.04,-1.43 h 1.44 c 0.02,0.15 0.04,0.34 0.06,0.57 0.02,0.22 0.03,0.4 0.04,0.54 0.15,-0.25 0.3,-0.47 0.44,-0.64 0.14,-0.17 0.31,-0.31 0.51,-0.42 0.19,-0.11 0.41,-0.16 0.66,-0.16 0.19,0 0.36,0.02 0.52,0.07 l -0.19,1.3 c -0.13,-0.04 -0.27,-0.05 -0.43,-0.05 -0.3,0 -0.56,0.07 -0.78,0.21 -0.22,0.14 -0.46,0.38 -0.71,0.72 v 3.59 h -1.52 z"
           id="path29" />
        <path
           class="cls-1"
           d="m 447.51,290.81 c -0.33,-0.07 -0.6,-0.17 -0.79,-0.27 l 0.33,-0.99 c 0.19,0.09 0.42,0.17 0.7,0.23 0.28,0.06 0.54,0.1 0.8,0.1 0.33,0 0.57,-0.06 0.73,-0.16 0.15,-0.11 0.23,-0.26 0.23,-0.47 0,-0.13 -0.04,-0.24 -0.11,-0.33 -0.07,-0.09 -0.19,-0.17 -0.33,-0.24 -0.15,-0.07 -0.38,-0.17 -0.68,-0.28 -0.32,-0.12 -0.59,-0.25 -0.81,-0.38 -0.22,-0.13 -0.4,-0.31 -0.55,-0.53 -0.14,-0.22 -0.22,-0.5 -0.22,-0.82 0,-0.34 0.08,-0.64 0.24,-0.89 0.16,-0.25 0.4,-0.44 0.71,-0.58 0.31,-0.14 0.69,-0.2 1.13,-0.2 0.32,0 0.64,0.04 0.95,0.11 0.32,0.07 0.6,0.17 0.86,0.29 l -0.26,0.97 c -0.25,-0.1 -0.51,-0.19 -0.79,-0.25 -0.28,-0.06 -0.52,-0.1 -0.72,-0.1 -0.23,0 -0.41,0.04 -0.53,0.13 -0.13,0.09 -0.19,0.2 -0.19,0.35 0,0.1 0.03,0.19 0.1,0.27 0.07,0.07 0.17,0.14 0.32,0.21 0.14,0.07 0.37,0.16 0.68,0.28 0.35,0.14 0.64,0.28 0.85,0.4 0.21,0.13 0.39,0.31 0.54,0.53 0.15,0.23 0.22,0.52 0.22,0.88 0,0.38 -0.09,0.71 -0.26,0.99 -0.18,0.28 -0.44,0.5 -0.79,0.65 -0.35,0.15 -0.78,0.23 -1.3,0.23 -0.37,0 -0.73,-0.04 -1.06,-0.11"
           id="path30" />
        <polygon
           class="cls-1"
           points="356.37,255.67 356.37,243.26 362.59,243.26 362.59,274.23 356.37,274.23 356.37,260.63 342.51,260.63 342.51,274.23 336.29,274.23 336.29,243.26 342.51,243.26 342.51,255.67 "
           id="polygon30" />
        <path
           class="cls-1"
           d="m 372.81,274.07 c -1.75,-0.39 -3.27,-0.91 -4.57,-1.55 l 1.84,-4.79 c 1.17,0.59 2.49,1.07 3.97,1.44 1.48,0.38 2.79,0.57 3.95,0.57 1.55,0 2.74,-0.34 3.56,-1.03 0.82,-0.68 1.23,-1.58 1.23,-2.7 0,-0.87 -0.27,-1.62 -0.81,-2.26 -0.54,-0.63 -1.24,-1.18 -2.09,-1.65 -0.85,-0.47 -2.06,-1.04 -3.63,-1.72 -1.63,-0.71 -2.97,-1.45 -4.04,-2.21 -1.07,-0.76 -1.9,-1.68 -2.5,-2.74 -0.6,-1.06 -0.9,-2.33 -0.9,-3.8 0,-1.84 0.45,-3.42 1.35,-4.75 0.9,-1.33 2.15,-2.33 3.74,-3.03 1.6,-0.69 3.43,-1.04 5.5,-1.04 1.53,0 3.09,0.17 4.68,0.52 1.6,0.35 2.88,0.79 3.85,1.32 l -1.2,4.98 c -2.57,-1.25 -5,-1.88 -7.29,-1.88 -1.35,0 -2.44,0.25 -3.25,0.75 -0.81,0.5 -1.22,1.28 -1.22,2.35 0,0.7 0.21,1.3 0.64,1.81 0.43,0.51 1.07,1 1.93,1.47 0.86,0.47 2.2,1.12 4.04,1.95 1.7,0.77 3.08,1.55 4.14,2.35 1.06,0.8 1.87,1.74 2.42,2.81 0.55,1.08 0.82,2.36 0.82,3.86 0,2.05 -0.45,3.79 -1.35,5.22 -0.9,1.43 -2.17,2.5 -3.82,3.23 -1.65,0.73 -3.59,1.09 -5.83,1.09 -1.7,0 -3.42,-0.2 -5.17,-0.59"
           id="path31" />
        <path
           class="cls-1"
           d="m 394.69,243.28 h 10.71 c 3.34,0 6.19,0.55 8.56,1.65 2.37,1.1 4.19,2.72 5.45,4.88 1.26,2.16 1.89,4.79 1.89,7.9 0,3.11 -0.66,6.02 -1.98,8.52 -1.32,2.5 -3.22,4.46 -5.7,5.88 -2.48,1.42 -5.39,2.13 -8.74,2.13 h -10.2 v -30.95 z m 9.85,26.15 c 2.24,0 4.13,-0.5 5.68,-1.49 1.55,-0.99 2.72,-2.35 3.49,-4.08 0.77,-1.73 1.15,-3.71 1.15,-5.95 0,-3.23 -0.83,-5.68 -2.49,-7.33 -1.66,-1.65 -4.13,-2.48 -7.41,-2.48 h -4.06 v 21.33 h 3.63 z"
           id="path32" />
        <polygon
           class="cls-7"
           points="435.11,252.18 435.11,247.64 456.07,257 456.07,261.27 435.11,270.68 435.11,266.15 451.01,259.15 "
           id="polygon32" />
        <polygon
           class="cls-7"
           points="301.54,257 322.5,247.64 322.5,252.18 306.6,259.15 322.5,266.15 322.5,270.68 301.54,261.27 "
           id="polygon33" />
      </g>
      <rect
         class="cls-3"
         x="346.84"
         y="274.23001"
         width="27.59"
         height="8.8299999"
         id="rect33" />
    </g>
  </g>
</svg>
